# xmcd
#
# Track frame offsets: 
#        150
#        15857
#        34555
#        47182
#        66642
#        82530
#        99360
#        119735
#        145307
#        166852
#        189342
#        203987
#        215582
#        231930
#        251757
#        265370
#        282062
#        299580
#        319995
#        335355
#
# Disc length: 4680 seconds
#
# Revision: 6
# Processed by: cddbd v1.5.2PL0 Copyright (c) Steve Scherf et al.
# Submitted via: ExactAudioCopy v0.99pb4
#
DISCID=2b124614
DTITLE=Uncut Magazine - Uncut Magazine: Sounds Of The New West
DYEAR=1998
DGENRE=Country
TTITLE0=Hazeldine - Tarmac
TTITLE1=The Flying Burrito Brothers - Sin City
TTITLE2=Josh Rouse - Suburban Sweetheart
TTITLE3=Emmylou Harris - Wrecking Ball
TTITLE4=The Pernice Brothers - Crestfallen
TTITLE5=Neal Casal - Today I'm Gonna Bleed
TTITLE6=Kate Campbell - Crazy In Alabama
TTITLE7=Willard Grant Conspiracy - Evening Mass
TTITLE8=Wagon - Two Hours Alone
TTITLE9=Freakwater - Lorraine
TTITLE10=Vic Chestnut - Until The Led
TTITLE11=Calexico - Trigger
TTITLE12=The Handsome Family - Weightless Again
TTITLE13=Lambchop - Saturday Option
TTITLE14=Silver Jews - How To Rent A Room
TTITLE15=Will Oldham - Apocalypse, No!
TTITLE16=Sixteen Horsepower - Coal Black Horses
TTITLE17=The Walkabouts - On The Beach
TTITLE18=Nadine - Dark Light
TTITLE19=Emmylou Harris - Boulder To Birmingham
EXTD=YEAR: 1998
EXTT0=
EXTT1=
EXTT2=
EXTT3=
EXTT4=
EXTT5=
EXTT6=
EXTT7=
EXTT8=
EXTT9=
EXTT10=
EXTT11=
EXTT12=
EXTT13=
EXTT14=
EXTT15=
EXTT16=
EXTT17=
EXTT18=
EXTT19=
PLAYORDER=
